<?xml version='1.0' encoding='utf-8'?>
<svg xmlns="http://www.w3.org/2000/svg" viewBox="0 0 2050 1550"> <defs> <style> .cls-1 { fill: #7fa7d9; } .cls-2, .cls-9 { fill: #fff; } .cls-3 { fill: #66422f; } .cls-4 { fill: #2c5c37; } .cls-5 { fill: #366c3f; } .cls-6 { fill: #3f7e4d; } .cls-11, .cls-12, .cls-7, .cls-8 { fill: #f3f3f3; } .cls-8 { fill-opacity: 0.36; } .cls-9 { fill-opacity: 0.33; } .cls-10 { fill: #f2f2f2; } .cls-11 { fill-opacity: 0.46; } .cls-12 { fill-opacity: 0.41; } </style> </defs> <title>Winter Forrest Scene for Pixabay</title> <g id="Layer_2" data-name="Layer 2"> <g id="Winter_Forrest_Scene_for_Pixabay" data-name="Winter Forrest Scene for Pixabay"> <path class="cls-1" d="M2050,1550H0V0H2050Z"/> <path class="cls-2" d="M2050,775.31v171s-19.72,11.44-50.17,23.29C1957.8,986,1888.89,1003.1,1799,992c-10.9-1.35-22.1-3.11-33.6-5.35-15.66-3-31.85-6.93-48.59-11.84h0c-74.18-21.7-158.68-63-251.21-135.16-30.09-26.25-56.16-39.91-82.43-45.74a156.73,156.73,0,0,0-34.24-3.56c-38.89,0-65.5,3.21-112.58,38.58-26.78,20.63-39,46.33-54.66,70-7.31,11.08-15.37,21.72-26,31.19-19.69,17.54-48.21,31.09-97.2,36.08a456.11,456.11,0,0,1-51.37,2C868.61,966.65,798,923.59,744.84,885.76h0c-4.7-3.34-9.26-6.65-13.72-9.88-13-9.39-25.08-18.16-37.19-25.53a322.27,322.27,0,0,0-53.19-26.87c-52.4-20.39-117.61-27.44-167.87,23.65q-8.31,5-16.42,9.93A1847,1847,0,0,0,294.78,968.52q-8.8,6.76-17.26,13.4c-71.69,56.3-125.08,105.55-164.84,137.25-69.24,55.22-97.12,57.17-108.21-49.76h0q-1-9.54-1.81-20.26l-.06-.73h0q-.57-7.62-1.07-15.85h0q-.44-7.07-.8-14.59-.33-6.47-.61-13.26L0,1001.76V754l.12-.47c.71-2.81,1.56-5.63,2.54-8.44a142.26,142.26,0,0,1,18.59-35.12q3.6-5.1,7.71-10.18C45.16,679.65,67,659.9,93.08,641.14c31.42-22.6,69-43.76,110.17-62.32,71-32,152.78-56.31,232.76-67.18,199-26.85,310.27,71.9,424.6,130.08,40.91,20.82,82.2,36.44,128,39.27,110.53,6.43,104.39-151.13,292.7-149a269,269,0,0,1,47.49,4.51h0c139.72,26.68,138.36,163,214.5,186.28C1698.92,770,2050,534.3,2050,775.31Z"/> <g> <g> <path class="cls-3" d="M599.37,786.89l17.68,1.83c0-32.49-2.71-21.27-3-49.31,0-.65.65-45.31,0-45.31l-11.75,7.48c-.65,0,0,37.18,0,37.83C602.29,741.36,599.37,772.54,599.37,786.89Z"/> <g> <path class="cls-4" d="M608.3,753.58c-15.7-35.14-39.73-5.52-51.74,3.6-8.2,6.7-17.25.29-22.91-8.69,5.37,21.66,19.51,25.94,32.81,10,15.71-19.23,32.54-.86,41.64,16.7v.8l.21-.4h0v0c9.1-17.55,25.93-35.92,41.64-16.69,13.3,16,27.44,11.69,32.81-10-5.66,9-14.71,15.39-22.91,8.69-12-9.08-35.86-38.52-51.56-4Zm.3-119v-.41c-54.16,0-52.18,124.27-77.5,91.49V732c.15,2.13.15,4,.29,5.27a17.66,17.66,0,0,0,4.52,11.26c13.86,15.25,25.17-2.85,38.47-17.82,13-14.47,25.71-2,33.44,8.87v1.51l.53-.76.25.36v-.72c7.73-10.88,20.45-23.33,33.44-8.86,13.3,15,24.61,33.07,38.47,17.82A17.66,17.66,0,0,0,685,737.63c.14-1.29.14-3.14.29-5.28v-6.27c-25.2,32.63-23.36-90.3-76.72-91.48Z"/> <path class="cls-5" d="M608.25,706c-14.21-50.17-36-7.88-46.84,5.14-7.43,9.56-15.62.4-20.74-12.41,4.86,30.92,17.67,37,29.7,14.24,14.22-27.46,29.46-1.23,37.7,23.82v1.16c.06-.19.12-.39.19-.58h0v0c8.24-25,23.47-51.28,37.7-23.82,12,22.78,24.83,16.68,29.7-14.25-5.12,12.82-13.31,22-20.74,12.41-10.84-13-32.46-55-46.67-5.7Zm.27-130.14v-.58c-24.19,56.09-47.24,137.69-70.15,90.89v9c.12,3,.12,5.69.25,7.52a34.39,34.39,0,0,0,4.1,16.08c12.54,21.76,22.78-4.07,34.82-25.44,11.76-20.65,23.27-2.89,30.27,12.66v2.16l.48-1.09c.08.17.15.34.23.52v-1c7-15.55,18.51-33.31,30.27-12.66,12,21.37,22.28,47.2,34.82,25.43a34.32,34.32,0,0,0,4.1-16.07c.12-1.83.12-4.47.25-7.52v-9c-22.8,46.57-36.66-17-69.44-90.88Z"/> <path class="cls-6" d="M608.23,666.64c-11.56-41.76-29.25-6.56-38.1,4.28-6,8-12.7.33-16.86-10.33,4,25.74,14.37,30.82,24.15,11.85,11.57-22.85,24-1,30.67,19.83v1l.15-.48h0c6.7-20.86,19.09-42.69,30.67-19.84,9.78,19,20.2,13.89,24.15-11.85-4.16,10.67-10.83,18.29-16.87,10.33-8.81-10.79-26.4-45.77-38-4.75Zm.22-91.41h0c-26,49.57-38.42,97.21-57.06,58.26v7.45c.11,2.54.11,4.75.21,6.27a29.1,29.1,0,0,0,3.33,13.38c10.21,18.12,18.54-3.39,28.32-21.17,9.57-17.19,18.94-2.41,24.63,10.53v1.8l.39-.91.18.43v-.84c5.69-12.94,15.06-27.73,24.63-10.54,9.78,17.78,18.11,39.29,28.32,21.17a29.19,29.19,0,0,0,3.33-13.38c.1-1.52.1-3.72.21-6.26V634C646.39,672.73,638.63,633.3,608.45,575.23Z"/> </g> </g> <g> <path class="cls-3" d="M345.44,849.72l38.2,3.94c0-70.18-5.87-45.94-6.5-106.51,0-1.4,1.39-97.89,0-97.89l-25.4,16.15c-1.4,0,0,80.34,0,81.74C351.74,751.35,345.44,818.72,345.44,849.72Z"/> <g> <path class="cls-4" d="M364.73,777.76c-33.91-75.92-85.81-11.92-111.77,7.78-17.72,14.47-37.27.61-49.49-18.78,11.61,46.79,42.16,56,70.87,21.55,34-41.55,70.31-1.86,90,36.05v1.75l.45-.87h0v0c19.66-37.92,56-77.61,90-36.06,28.72,34.48,59.27,25.24,70.87-21.55-12.21,19.39-31.77,33.25-49.48,18.78-25.86-19.62-77.47-83.21-111.39-8.64Zm.65-257v-.88c-117,0-112.73,268.47-167.41,197.66V731c.31,4.62.31,8.62.61,11.39a38.23,38.23,0,0,0,9.78,24.33c29.93,32.94,54.37-6.16,83.09-38.49C319.51,697,347,723.9,363.7,747.42v3.26c.37-.54.75-1.09,1.14-1.64l.54.78v-1.54c16.7-23.52,44.19-50.4,72.25-19.15,28.71,32.33,53.15,71.43,83.09,38.49a38.16,38.16,0,0,0,9.77-24.32c.31-2.78.31-6.78.61-11.4V718.36c-54.42,70.47-50.44-195.08-165.72-197.64Z"/> <path class="cls-5" d="M364.61,674.86c-30.69-108.38-77.68-17-101.18,11.1-16,20.65-33.73.88-44.79-26.81,10.5,66.8,38.16,80,64.15,30.76,30.73-59.3,63.64-2.64,81.44,51.48v2.49c.14-.41.27-.83.41-1.25v0c17.79-54.13,50.7-110.78,81.44-51.48,26,49.22,53.64,36,64.15-30.76-11.06,27.69-28.76,47.46-44.8,26.81-23.4-28-70.12-118.78-100.83-12.33Zm.59-281.12v-1.25C313,513.65,263.16,689.91,213.66,588.83v19.34c.28,6.59.28,12.31.55,16.26.28,12.75,3.32,25.05,8.85,34.72,27.1,47,49.22-8.79,75.22-54.93,25.4-44.62,50.28-6.25,65.4,27.33v4.66c.34-.78.68-1.56,1-2.34l.49,1.11v-2.2c15.12-33.58,40-71.95,65.4-27.34,26,46.15,48.12,102,75.22,54.94,5.53-9.67,8.57-22,8.85-34.72.27-3.95.27-9.67.55-16.26V590.06C466,690.66,436,553.34,365.2,393.74Z"/> <path class="cls-6" d="M364.58,590c-25-90.21-63.18-14.17-82.3,9.23-13,17.2-27.44.74-36.43-22.31,8.54,55.6,31,66.58,52.18,25.61,25-49.37,51.76-2.21,66.24,42.84v2.08l.33-1h0v0c14.47-45,41.24-92.2,66.24-42.84,21.14,41,43.63,30,52.18-25.61-9,23.05-23.39,39.51-36.44,22.32-19-23.32-57-98.87-82-10.26Zm.48-197.46h0c-56.2,107.07-83,210-123.26,125.85v16.1c.22,5.48.22,10.24.45,13.53.22,10.61,2.7,20.85,7.2,28.9,22,39.14,40-7.32,61.18-45.72,20.65-37.14,40.89-5.2,53.19,22.75v3.88l.84-2,.4.93v-1.83C377.35,527,397.59,495,418.25,532.17c21.15,38.41,39.14,84.87,61.18,45.72,4.5-8,7-18.29,7.2-28.89.22-3.3.22-8,.45-13.54V519.37C447,603.1,430.24,517.93,365.06,392.49Z"/> </g> </g> <g> <path class="cls-3" d="M111.86,743.93l29,3c0-53.24-4.45-34.85-4.93-80.8,0-1.06,1.06-74.25,0-74.25l-19.27,12.25c-1,0,0,60.94,0,62C116.64,669.31,111.86,720.42,111.86,743.93Z"/> <g> <path class="cls-4" d="M126.5,689.34c-25.72-57.59-65.1-9-84.79,5.9-13.44,11-28.27.47-37.54-14.24,8.81,35.49,32,42.5,53.76,16.34,25.76-31.51,53.33-1.4,68.25,27.36V726l.34-.66h0v0C141.44,696.59,169,666.48,194.77,698c21.78,26.15,45,19.15,53.76-16.35-9.27,14.71-24.1,25.22-37.54,14.24-19.61-14.88-58.76-63.12-84.49-6.55Zm.49-195v-.67c-88.75,0-85.51,203.64-127,149.93v10.28c.23,3.5.23,6.53.46,8.64A29,29,0,0,0,7.88,681c22.71,25,41.25-4.68,63-29.2,21.28-23.71,42.14-3.31,54.81,14.53v2.47l.86-1.24.41.59V667c12.67-17.84,33.52-38.23,54.8-14.52,21.79,24.52,40.32,54.18,63,29.19a28.93,28.93,0,0,0,7.42-18.45c.23-2.1.23-5.14.46-8.64V644.28c-41.28,53.46-38.26-148-125.71-149.91Z"/> <path class="cls-5" d="M126.41,611.29c-23.28-82.22-58.93-12.91-76.75,8.42-12.17,15.66-25.59.66-34-20.34,8,50.67,28.94,60.67,48.66,23.34,23.31-45,48.28-2,61.78,39v1.89l.31-.94h0v0c13.5-41,38.47-84,61.78-39C207.93,661,228.91,651,236.88,600.3c-8.39,21-21.82,36-34,20.34-17.76-21.25-53.2-90.11-76.49-9.35ZM126.85,398v-1C87.23,489,49.45,622.71,11.9,546V560.7c.21,5,.21,9.33.42,12.33.21,9.67,2.52,19,6.71,26.34C39.59,635,56.37,592.7,76.09,557.7c19.27-33.85,38.14-4.74,49.61,20.73V582l.78-1.78c.13.28.25.56.37.84v-1.67c11.47-25.47,30.35-54.57,49.61-20.73,19.72,35,36.5,77.34,57.06,41.67,4.2-7.33,6.5-16.67,6.71-26.33.21-3,.21-7.34.42-12.34V547c-37.36,76.31-60.08-27.85-113.8-148.92Z"/> <path class="cls-6" d="M126.39,546.88c-18.94-68.43-47.93-10.75-62.43,7-9.9,13-20.82.56-27.64-16.92,6.48,42.17,23.54,50.5,39.58,19.42,19-37.45,39.27-1.67,50.25,32.5v1.57c.08-.26.17-.52.25-.78h0v0c11-34.18,31.29-69.95,50.25-32.5,16,31.07,33.1,22.75,39.59-19.43-6.83,17.48-17.75,30-27.64,16.93-14.45-17.69-43.27-75-62.21-7.78Zm.36-149.79h0c-42.63,81.22-63,159.29-93.5,95.47v12.21c.17,4.16.17,7.77.34,10.26A47.74,47.74,0,0,0,39.05,537c16.72,29.69,30.37-5.55,46.41-34.69,15.67-28.17,31-3.94,40.35,17.26v2.94l.64-1.48.3.7V520.3c9.32-21.2,24.68-45.42,40.35-17.25,16,29.13,29.69,64.37,46.41,34.68,3.41-6.1,5.29-13.87,5.46-21.92.17-2.5.17-6.1.34-10.27V493.33C188.91,556.85,176.19,492.25,126.75,397.09Z"/> </g> </g> </g> <path class="cls-7" d="M1089.51,801.71c-126.14-17.92-429.85-89-594.58-19.78,0,18.49-3,169.72-3,179.25,95-34.73,208.16-38.09,374.36,0,153.58,49.47,429.73-174.86,486.88-198.44-28.73,1.64-13.65-71.83-13.65-71.83S1339.12,810,1089.51,801.71ZM851.09,736.84c139.5,29.41,258.22,65,403.65,35,29.68-6.16,46-14,47.48-22.13,1.49-2.52,1.49-6.16,3-10.36V727C1039.56,791.45,1060.33,547.22,492,547.22V756.44C572.1,734.6,710.11,707.43,851.09,736.84Z"/> <g> <g> <path class="cls-3" d="M645,750.11,627,752c0-33,2.76-21.63,3.06-50.15,0-.66-.66-46.09,0-46.09l12,7.6c.66,0,0,37.83,0,38.49C642.06,703.79,645,735.51,645,750.11Z"/> <g> <path class="cls-4" d="M635.94,716.23c16-35.75,40.41-5.62,52.63,3.66,8.35,6.81,17.55.29,23.31-8.85-5.47,22-19.85,26.39-33.38,10.15-16-19.56-33.1-.87-42.36,17V739l-.21-.41h0v0c-9.26-17.85-26.38-36.54-42.37-17-13.52,16.23-27.9,11.88-33.37-10.15,5.76,9.13,15,15.65,23.31,8.84,12.17-9.24,36.47-39.18,52.44-4.06Zm-.3-121v-.41c55.09,0,53.08,126.41,78.83,93.07v6.38c-.15,2.17-.15,4.06-.29,5.36A18,18,0,0,1,709.57,711c-14.09,15.51-25.6-2.9-39.12-18.12-13.21-14.72-26.16-2.06-34,9v1.54l-.54-.78c-.08.13-.17.25-.25.37v-.73c-7.86-11.07-20.81-23.73-34-9-13.52,15.22-25,33.63-39.13,18.12a18,18,0,0,1-4.6-11.45c-.14-1.31-.14-3.19-.29-5.37v-6.38c25.63,33.19,23.76-91.85,78-93.06Z"/> <path class="cls-5" d="M636,667.77c14.45-51,36.58-8,47.64,5.23,7.55,9.72,15.89.41,21.09-12.63-4.94,31.46-18,37.67-30.2,14.49-14.47-27.93-30-1.25-38.35,24.24v1.17l-.19-.59h0c-8.38-25.49-23.87-52.17-38.34-24.24-12.24,23.18-25.27,17-30.21-14.49,5.21,13,13.54,22.35,21.09,12.63,11-13.19,33-55.93,47.48-5.81Zm-.28-132.37v-.59c24.6,57.05,48,140.05,71.36,92.45v9.11c-.13,3.1-.13,5.79-.26,7.66a34.8,34.8,0,0,1-4.17,16.34c-12.76,22.15-23.18-4.13-35.42-25.86-12-21-23.67-2.94-30.79,12.87v2.19c-.16-.36-.32-.73-.49-1.1-.07.17-.15.35-.23.52v-1c-7.12-15.81-18.83-33.88-30.79-12.87-12.24,21.73-22.66,48-35.42,25.86a34.92,34.92,0,0,1-4.17-16.34c-.13-1.87-.13-4.56-.26-7.66v-9.11c23.2,47.37,37.3-17.29,70.64-92.44Z"/> <path class="cls-6" d="M636,627.79c11.76-42.48,29.76-6.67,38.75,4.35,6.15,8.09,12.93.34,17.16-10.51-4,26.18-14.61,31.35-24.57,12.06-11.77-23.25-24.37-1-31.19,20.17v1c0-.16-.1-.33-.16-.49h0v0c-6.81-21.21-19.42-43.41-31.19-20.17-9.95,19.29-20.55,14.13-24.57-12.06,4.24,10.86,11,18.61,17.16,10.51,9-11,26.86-46.55,38.61-4.83Zm-.22-93h0c26.46,50.42,39.08,98.88,58,59.26v7.58c-.11,2.59-.11,4.82-.21,6.37a29.62,29.62,0,0,1-3.39,13.61c-10.38,18.43-18.85-3.44-28.81-21.53-9.73-17.49-19.26-2.45-25,10.71v1.83l-.39-.92c-.07.15-.13.29-.19.44v-.86c-5.79-13.16-15.32-28.2-25-10.72-10,18.09-18.43,40-28.81,21.53a29.61,29.61,0,0,1-3.38-13.6c-.11-1.55-.11-3.79-.22-6.38v-7.58C597.2,634,605.1,593.88,635.79,534.81Z"/> </g> </g> <g> <path class="cls-3" d="M779.29,685.7l-29.47,3c0-54.16,4.53-35.46,5-82.19,0-1.08-1.08-75.53,0-75.53l19.59,12.46c1.08,0,0,62,0,63.07C774.43,609.79,779.29,661.78,779.29,685.7Z"/> <g> <path class="cls-4" d="M764.41,630.17c26.16-58.58,66.21-9.2,86.24,6,13.67,11.16,28.76.47,38.19-14.49-9,36.11-32.53,43.23-54.69,16.63-26.19-32.06-54.25-1.43-69.42,27.82v1.35l-.34-.68h0v0C749.21,637.54,721.16,606.92,695,639c-22.15,26.61-45.73,19.48-54.68-16.63,9.43,15,24.51,25.66,38.18,14.49,20-15.14,59.78-64.2,85.95-6.66Zm-.5-198.33v-.68c90.28,0,87,207.15,129.17,152.51v10.45c-.24,3.57-.24,6.65-.47,8.79a29.51,29.51,0,0,1-7.54,18.77c-23.1,25.42-42-4.75-64.12-29.7-21.65-24.11-42.86-3.37-55.75,14.78v2.52c-.28-.42-.58-.84-.88-1.27l-.41.6v-1.19c-12.89-18.15-34.1-38.89-55.75-14.77-22.15,24.94-41,55.11-64.11,29.69a29.35,29.35,0,0,1-7.54-18.76c-.24-2.14-.24-5.23-.48-8.79V584.34c42,54.37,38.93-150.53,127.88-152.5Z"/> <path class="cls-5" d="M764.5,550.77c23.68-83.62,59.94-13.13,78.07,8.57,12.37,15.93,26,.67,34.56-20.69-8.1,51.54-29.44,61.72-49.5,23.74-23.71-45.76-49.1-2-62.84,39.71V604c-.1-.32-.21-.64-.31-1h0v0c-13.73-41.76-39.12-85.47-62.84-39.71-20,38-41.39,27.8-49.5-23.74,8.54,21.36,22.19,36.62,34.57,20.68,18.06-21.61,54.11-91.65,77.8-9.51Zm-.45-216.91v-1c40.3,93.49,78.73,229.5,116.92,151.5v14.92c-.21,5.09-.21,9.5-.42,12.55-.22,9.84-2.56,19.33-6.83,26.79-20.91,36.28-38-6.78-58-42.39-19.6-34.42-38.8-4.81-50.46,21.09V521c-.26-.6-.53-1.2-.8-1.81-.12.29-.25.57-.37.86v-1.7c-11.67-25.91-30.87-55.51-50.47-21.09-20.05,35.61-37.12,78.67-58,42.39-4.27-7.46-6.62-17-6.83-26.79-.22-3-.22-7.46-.43-12.55V485.34C686.3,563,709.41,457,764.05,333.86Z"/> <path class="cls-6" d="M764.52,485.25c19.27-69.6,48.76-10.93,63.5,7.13,10.07,13.27,21.18.57,28.12-17.22-6.6,42.91-23.95,51.37-40.27,19.76-19.28-38.09-39.94-1.7-51.11,33.06v1.6c-.08-.27-.17-.53-.25-.8h0v0c-11.17-34.76-31.82-71.15-51.11-33.06-16.31,31.61-33.67,23.15-40.26-19.76,6.94,17.79,18,30.49,28.11,17.22,14.69-18,44-76.29,63.28-7.92Zm-.36-152.36h0c43.36,82.62,64,162,95.1,97.11v12.42c-.17,4.24-.17,7.91-.35,10.45-.17,8.18-2.08,16.08-5.55,22.29-17,30.2-30.89-5.64-47.2-35.28-15.95-28.65-31.56-4-41,17.56v3c-.21-.5-.43-1-.65-1.51l-.3.72v-1.41c-9.49-21.57-25.11-46.21-41-17.56-16.31,29.64-30.2,65.48-47.21,35.28-3.47-6.21-5.38-14.11-5.55-22.29-.17-2.54-.17-6.21-.35-10.45V430.79C700.92,495.4,713.86,429.69,764.16,332.89Z"/> </g> </g> <g> <path class="cls-3" d="M998.48,818.27l-29.47,3c0-54.16,4.52-35.45,5-82.19,0-1.08-1.08-75.53,0-75.53l19.6,12.47c1.08,0,0,62,0,63.06C993.62,742.37,998.48,794.35,998.48,818.27Z"/> <g> <path class="cls-4" d="M983.59,762.74c26.17-58.58,66.22-9.2,86.25,6,13.67,11.17,28.75.48,38.18-14.49-9,36.11-32.52,43.24-54.68,16.63-26.2-32.06-54.25-1.43-69.42,27.82v1.35l-.35-.67h0v0c-15.17-29.26-43.23-59.88-69.42-27.82C892,798.15,868.42,791,859.46,754.92c9.43,15,24.52,25.65,38.19,14.49,20-15.14,59.77-64.21,85.94-6.67Zm-.49-198.33v-.67c90.27,0,87,207.14,129.17,152.5V726.7c-.24,3.56-.24,6.65-.48,8.79a29.37,29.37,0,0,1-7.54,18.76c-23.1,25.42-42-4.75-64.11-29.69-21.65-24.12-42.86-3.38-55.75,14.77v2.52l-.88-1.27-.41.61V740c-12.89-18.15-34.1-38.89-55.75-14.78-22.16,24.95-41,55.11-64.11,29.7a29.46,29.46,0,0,1-7.55-18.77c-.23-2.14-.23-5.23-.47-8.79V716.91c42,54.37,38.92-150.52,127.88-152.5Z"/> <path class="cls-5" d="M983.68,683.35c23.69-83.63,59.94-13.14,78.07,8.56,12.38,15.94,26,.68,34.57-20.69-8.11,51.55-29.44,61.72-49.5,23.74-23.71-45.76-49.11-2-62.84,39.72v1.92l-.32-1h0v0c-13.73-41.76-39.13-85.48-62.84-39.72-20.06,38-41.39,27.81-49.5-23.74,8.53,21.37,22.19,36.63,34.57,20.69,18.06-21.62,54.1-91.65,77.79-9.51Zm-.45-216.91v-1C1023.54,559,1062,695,1100.16,617v14.92c-.21,5.08-.21,9.49-.43,12.54-.21,9.84-2.56,19.33-6.82,26.79-20.91,36.29-38-6.78-58-42.38-19.6-34.43-38.8-4.82-50.46,21.09v3.59c-.27-.6-.53-1.2-.8-1.81-.13.29-.25.58-.38.86v-1.7c-11.66-25.9-30.86-55.51-50.46-21.09-20.06,35.61-37.13,78.68-58,42.39-4.26-7.46-6.61-16.95-6.83-26.79-.21-3-.21-7.46-.42-12.54V617.92c38,77.61,61.12-28.34,115.75-151.48Z"/> <path class="cls-6" d="M983.71,617.83c19.26-69.61,48.75-10.93,63.5,7.12,10.07,13.27,21.17.57,28.11-17.21-6.59,42.9-24,51.37-40.26,19.75-19.29-38.08-39.94-1.7-51.11,33.06v1.6c-.09-.26-.17-.53-.26-.8v0c-11.17-34.76-31.82-71.15-51.11-33.06-16.32,31.62-33.67,23.15-40.27-19.75,7,17.78,18.05,30.48,28.12,17.21,14.69-18,44-76.28,63.28-7.91Zm-.37-152.36h0c43.37,82.62,64,162,95.11,97.11V575c-.17,4.23-.17,7.9-.35,10.44-.17,8.18-2.08,16.09-5.55,22.3-17,30.2-30.89-5.65-47.21-35.28-15.94-28.66-31.56-4-41,17.55v3l-.65-1.5c-.1.24-.21.48-.31.71V590.8c-9.49-21.56-25.1-46.21-41-17.55-16.32,29.63-30.2,65.48-47.21,35.28-3.47-6.21-5.38-14.12-5.55-22.3-.18-2.54-.18-6.21-.35-10.44V563.37C920.11,628,933.05,562.26,983.34,465.47Z"/> </g> </g> </g> <path class="cls-8" d="M812.87,911.44C625.71,861.16,244.42,697.72,0,891.8v121c140.92-97.44,412.11-201.16,658.74-94.29,207,88,427.18,64.43,510.86-55C1081.52,913,940.59,948.37,812.87,911.44ZM535.42,765.29c207,82.51,383.15,182.3,598.94,98.22,44-17.28,68.27-39.28,70.47-62.07,2.2-7.07,2.2-17.29,4.4-29.07V737.79C815.08,918.52,843.36,233.34,0,233.34v587C118.91,759,326.24,682.79,535.42,765.29Z"/> <path class="cls-7" d="M845.57,941.24C971.71,912.16,1560,641.28,2045.2,818.9c0,78.29,4.8,201.14,4.8,216.59-95-56.35-627.22-56.28-870.83,0s-530.88-52.89-587.28-122C651.25,942.15,759.5,962.6,845.57,941.24Zm232.25-80.44c-139.5,47.72-316.75,101.35-462.18,52.72-29.68-10-46-22.72-47.49-35.9-1.48-4.09-1.48-10-3-16.82,384,41.41,916.45-456.61,1484.82-456.61V743.67C1969.87,708.22,1567.12,698.08,1077.82,860.8Z"/> <g> <g> <path class="cls-3" d="M1239.71,658,1216,660.42c0-43.66,3.65-28.58,4-66.26,0-.87-.87-60.9,0-60.9l15.8,10c.87,0,0,50,0,50.85C1235.79,596.77,1239.71,638.69,1239.71,658Z"/> <g> <path class="cls-4" d="M1227.71,613.2c21.1-47.23,53.39-7.41,69.54,4.84,11,9,23.18.38,30.78-11.68-7.22,29.11-26.22,34.85-44.09,13.4-21.12-25.84-43.73-1.15-56,22.44v1.08c-.09-.18-.18-.36-.28-.54h0v0c-12.23-23.59-34.85-48.28-56-22.43-17.86,21.45-36.87,15.7-44.09-13.41,7.6,12.07,19.77,20.69,30.79,11.69,16.08-12.21,48.19-51.77,69.29-5.38Zm-.4-159.9v-.55c72.79,0,70.13,167,104.14,123v8.43c-.19,2.87-.19,5.36-.38,7.09a23.77,23.77,0,0,1-6.08,15.13c-18.62,20.49-33.82-3.83-51.69-23.94-17.45-19.45-34.56-2.73-45,11.91v2l-.7-1-.34.48v-1c-10.39-14.63-27.49-31.35-45-11.91-17.86,20.11-33.06,44.44-51.69,23.94a23.72,23.72,0,0,1-6.08-15.13c-.19-1.72-.19-4.21-.38-7.09v-8.42c33.85,43.84,31.38-121.36,103.1-122.95Z"/> <path class="cls-5" d="M1227.78,549.19c19.1-67.43,48.33-10.59,63,6.9,10,12.85,21,.55,27.87-16.68-6.54,41.56-23.74,49.76-39.91,19.14-19.12-36.89-39.6-1.65-50.67,32v1.56c-.08-.26-.17-.52-.25-.78h0v0c-11.07-33.67-31.54-68.92-50.66-32-16.17,30.62-33.37,22.42-39.91-19.14,6.88,17.22,17.89,29.53,27.87,16.68,14.56-17.43,43.62-73.9,62.72-7.67Zm-.36-174.89v-.78c32.5,75.38,63.48,185,94.28,122.15v12c-.18,4.1-.18,7.65-.35,10.11a46.09,46.09,0,0,1-5.5,21.6c-16.86,29.26-30.63-5.46-46.8-34.17-15.8-27.76-31.28-3.89-40.68,17v2.9l-.65-1.46-.3.7V523c-9.4-20.89-24.88-44.76-40.69-17-16.17,28.71-29.93,63.43-46.79,34.18a46.12,46.12,0,0,1-5.5-21.6c-.18-2.46-.18-6-.35-10.12v-12c30.65,62.58,49.28-22.84,93.33-122.13Z"/> <path class="cls-6" d="M1227.8,496.36c15.54-56.12,39.31-8.81,51.2,5.75,8.12,10.69,17.07.45,22.67-13.88-5.32,34.59-19.31,41.41-32.46,15.93-15.55-30.71-32.21-1.37-41.21,26.65v1.29l-.21-.64h0c-9-28-25.66-57.37-41.21-26.66-13.15,25.49-27.15,18.66-32.46-15.93,5.59,14.34,14.55,24.58,22.66,13.89,11.85-14.51,35.49-61.51,51-6.39Zm-.29-122.84h0c35,66.61,51.63,130.64,76.68,78.3v10c-.14,3.41-.14,6.37-.28,8.42a39.1,39.1,0,0,1-4.48,18c-13.71,24.35-24.91-4.55-38.06-28.45-12.85-23.1-25.44-3.23-33.09,14.15v2.42c-.17-.41-.35-.81-.52-1.22l-.25.58v-1.14c-7.65-17.39-20.24-37.26-33.09-14.15-13.16,23.89-24.35,52.79-38.06,28.44a39.06,39.06,0,0,1-4.48-18c-.14-2.05-.14-5-.28-8.42v-10C1176.52,504.54,1187,451.56,1227.51,373.52Z"/> </g> </g> <g> <path class="cls-3" d="M1581,742.4l-51.34,5.3c0-94.32,7.89-61.75,8.74-143.15,0-1.87-1.88-131.54,0-131.54l34.13,21.7c1.88,0,0,108,0,109.84C1572.5,610.21,1581,700.75,1581,742.4Z"/> <g> <path class="cls-4" d="M1555,645.7c45.57-102,115.33-16,150.21,10.45,23.81,19.44,50.09.82,66.51-25.24-15.6,62.89-56.65,75.3-95.24,29-45.63-55.84-94.49-2.49-120.91,48.46v2.35c-.2-.4-.4-.79-.61-1.18v0c-26.43-51-75.29-104.29-120.91-48.45-38.59,46.34-79.64,33.92-95.25-29,16.43,26.07,42.7,44.69,66.51,25.24,34.75-26.37,104.11-111.82,149.69-11.6Zm-.87-345.43v-1.19c157.24,0,151.49,360.79,225,265.63v18.2c-.41,6.21-.41,11.59-.82,15.31a51.32,51.32,0,0,1-13.14,32.69c-40.23,44.27-73.07-8.28-111.66-51.72-37.71-42-74.65-5.88-97.1,25.73v4.39c-.5-.73-1-1.47-1.53-2.21l-.73,1v-2.07c-22.44-31.61-59.38-67.74-97.09-25.73-38.59,43.44-71.43,96-111.67,51.71a51.26,51.26,0,0,1-13.13-32.68c-.41-3.73-.41-9.1-.83-15.31V565.86c73.14,94.71,67.8-262.16,222.72-265.59Z"/> <path class="cls-5" d="M1555.2,507.41c41.25-145.65,104.4-22.87,136,14.91,21.56,27.76,45.34,1.18,60.21-36-14.12,89.77-51.29,107.49-86.22,41.34-41.3-79.7-85.53-3.56-109.45,69.17v3.36l-.54-1.68v0c-23.92-72.73-68.15-148.87-109.45-69.17-34.93,66.15-72.1,48.43-86.22-41.34,14.87,37.21,38.65,63.78,60.21,36,31.45-37.65,94.24-159.64,135.5-16.57Zm-.79-377.79v-1.69c70.21,162.83,137.14,399.71,203.66,263.87v26c-.37,8.86-.37,16.54-.75,21.86-.37,17.12-4.46,33.66-11.89,46.66-36.42,63.19-66.15-11.82-101.08-73.83-34.14-60-67.58-8.39-87.89,36.73v6.26c-.46-1-.92-2.09-1.39-3.14l-.66,1.49v-3c-20.31-45.12-53.75-96.69-87.89-36.73-34.93,62-64.66,137-101.08,73.83-7.43-13-11.52-29.53-11.89-46.66-.38-5.32-.38-13-.75-21.85v-26c66.2,135.19,106.45-49.35,201.61-263.83Z"/> <path class="cls-6" d="M1555.24,393.3c33.56-121.24,84.92-19,110.6,12.41,17.53,23.1,36.88,1,49-30-11.49,74.72-41.71,89.47-70.13,34.41-33.59-66.34-69.56-3-89,57.58v2.79c-.15-.46-.29-.93-.44-1.4v0c-19.46-60.53-55.43-123.91-89-57.57-28.42,55.06-58.64,40.31-70.13-34.41,12.09,31,31.44,53.09,49,30,25.59-31.33,76.65-132.87,110.21-13.78Zm-.64-265.37h0c75.53,143.9,111.54,282.2,165.65,169.13V318.7c-.3,7.37-.3,13.76-.6,18.18-.31,14.26-3.63,28-9.68,38.84-29.62,52.6-53.8-9.83-82.22-61.45-27.76-49.91-55-7-71.48,30.57v5.22c-.37-.87-.75-1.75-1.13-2.62l-.54,1.24v-2.46c-16.52-37.56-43.72-80.48-71.48-30.57-28.42,51.61-52.6,114.05-82.22,61.45-6.05-10.82-9.37-24.58-9.68-38.84-.3-4.42-.3-10.82-.6-18.19V298.44C1444.47,411,1467,296.51,1554.6,127.93Z"/> </g> </g> <g> <path class="cls-3" d="M1894.87,600.23l-38.94,4c0-71.55,6-46.84,6.62-108.59,0-1.42-1.42-99.78,0-99.78l25.89,16.46c1.43,0,0,81.9,0,83.32C1888.44,500,1894.87,568.63,1894.87,600.23Z"/> <g> <path class="cls-4" d="M1875.2,526.87c34.57-77.39,87.48-12.15,114,7.93,18.06,14.75,38,.63,50.45-19.15-11.84,47.71-43,57.12-72.25,22-34.61-42.35-71.68-1.89-91.72,36.76v1.78l-.46-.89v0c-20.05-38.65-57.11-79.11-91.72-36.76-29.27,35.15-60.41,25.74-72.25-22,12.46,19.77,32.39,33.9,50.45,19.15,26.36-20,79-84.83,113.55-8.81Zm-.66-262v-.9c119.28,0,114.92,273.68,170.66,201.5v13.81c-.31,4.7-.31,8.79-.62,11.61a38.88,38.88,0,0,1-10,24.79c-30.52,33.59-55.43-6.27-84.7-39.23-28.61-31.86-56.63-4.46-73.66,19.52v3.33c-.38-.55-.76-1.11-1.16-1.67l-.55.79v-1.57c-17-24-45-51.38-73.65-19.52-29.27,32.95-54.19,72.81-84.71,39.23a38.92,38.92,0,0,1-10-24.79c-.31-2.83-.31-6.91-.62-11.61V466.32c55.47,71.83,51.42-198.87,168.94-201.48Z"/> <path class="cls-5" d="M1875.32,422c31.29-110.48,79.19-17.35,103.15,11.32,16.35,21,34.39.89,45.66-27.33-10.71,68.1-38.9,81.54-65.4,31.36-31.33-60.46-64.88-2.7-83,52.47v2.54l-.42-1.27v0c-18.15-55.17-51.69-112.93-83-52.47-26.5,50.18-54.69,36.74-65.41-31.36,11.28,28.23,29.32,48.39,45.67,27.33C1796.4,406,1844,313.45,1875.32,422Zm-.6-286.58v-1.28c53.26,123.52,104,303.21,154.49,200.16V354c-.28,6.72-.28,12.54-.57,16.57-.28,13-3.38,25.54-9,35.4-27.62,47.94-50.18-9-76.67-56-25.9-45.48-51.26-6.36-66.68,27.87v4.75c-.34-.79-.69-1.59-1-2.39l-.5,1.14v-2.25c-15.41-34.23-40.77-73.35-66.67-27.86-26.5,47-49,103.94-76.68,56-5.63-9.86-8.73-22.4-9-35.39-.28-4-.28-9.86-.56-16.58V335.53c50.22,102.55,80.75-37.44,152.93-200.14Z"/> <path class="cls-6" d="M1875.35,335.41c25.46-92,64.42-14.44,83.9,9.42,13.3,17.52,28,.74,37.15-22.75-8.72,56.68-31.65,67.87-53.2,26.1-25.48-50.32-52.77-2.24-67.53,43.68V394c-.11-.36-.22-.71-.34-1.06h0v0c-14.76-45.92-42-94-67.53-43.67-21.55,41.76-44.48,30.57-53.2-26.11,9.18,23.5,23.85,40.28,37.15,22.75,19.41-23.77,58.15-100.79,83.6-10.46Zm-.48-201.3h0c57.29,109.16,84.61,214.07,125.65,128.3v16.41c-.23,5.6-.23,10.44-.46,13.8-.23,10.81-2.75,21.26-7.33,29.46-22.47,39.9-40.82-7.46-62.37-46.61-21.06-37.86-41.7-5.3-54.23,23.19v3.95c-.28-.66-.57-1.32-.86-2-.13.32-.27.63-.4.95V299.7c-12.54-28.49-33.17-61-54.23-23.19-21.55,39.15-39.9,86.51-62.37,46.61-4.58-8.2-7.11-18.64-7.34-29.46-.22-3.35-.22-8.2-.45-13.8v-16.4C1791.32,348.81,1808.42,262,1874.87,134.11Z"/> </g> </g> </g> <path class="cls-9" d="M951.89,137.3c252.53,67.85,768.33,288.35,1098.11,26.5V0c-190.14,131.46-557.4,271.93-890.14,127.75C880.59,9,583.49,40.82,470.6,202,589.43,135.18,779.58,87.47,951.89,137.3Zm374.34,197.18C1047,223.17,809.28,88.53,518.13,202c-59.42,23.33-92.1,53-95.07,83.76-3,9.54-3,23.32-5.94,39.22v46.65c531.8-243.84,495,680.61,1632.88,680.61V260.27C1889.57,343,1608.47,445.8,1326.23,334.48Z"/> <path class="cls-10" d="M623.63,1297.78C427.4,1376,275.56,1488.48,71,1408.78c-41.75-16.39-64.72-37.25-66.8-58.85-2.09-6.71-2.09-16.39-4.18-27.56v-32.78c373.67,171.33,545.6-249.51,1179.81-249.51S2050,1289.59,2050,1289.59V1550H1439.38l-310.56-200.07C1016.09,1291.82,822,1219.57,623.63,1297.78Z"/> <g> <path class="cls-3" d="M1737.19,962.89l52.3,5.39c0-96.08-8-62.89-8.9-145.81,0-1.91,1.91-134,0-134l-34.77,22.11c-1.91,0,0,110,0,111.88C1745.82,828.23,1737.19,920.46,1737.19,962.89Z"/> <g> <path class="cls-4" d="M1763.61,864.38c-46.42-103.93-117.48-16.32-153,10.64-24.25,19.81-51,.85-67.74-25.7,15.89,64.06,57.7,76.7,97,29.5,46.48-56.88,96.24-2.54,123.16,49.36v2.39l.61-1.2v0c26.92-51.9,76.68-106.24,123.16-49.36,39.31,47.2,81.12,34.55,97-29.51-16.72,26.56-43.49,45.52-67.74,25.71-35.4-26.86-106-113.9-152.47-11.82Zm.88-351.86v-1.2c-160.16,0-154.31,367.5-229.16,270.57v18.54c.42,6.32.42,11.8.83,15.59a52.27,52.27,0,0,0,13.39,33.3c41,45.09,74.43-8.43,113.74-52.68,38.41-42.79,76-6,98.9,26.21v4.47q.76-1.12,1.56-2.25c.25.36.5.71.74,1.07V824c22.86-32.19,60.49-69,98.9-26.21,39.31,44.26,72.76,97.78,113.74,52.68a52.22,52.22,0,0,0,13.39-33.29c.41-3.79.41-9.27.83-15.59V783.06c-74.49,96.47-69-267-226.86-270.54Z"/> <path class="cls-5" d="M1763.45,723.52c-42-148.36-106.34-23.3-138.51,15.19-22,28.28-46.18,1.21-61.32-36.7,14.38,91.45,52.24,109.5,87.82,42.12,42.07-81.19,87.12-3.63,111.48,70.46V818c.19-.57.37-1.14.56-1.71v0c24.36-74.09,69.41-151.64,111.48-70.46,35.58,67.38,73.44,49.33,87.82-42.11-15.14,37.9-39.36,65-61.32,36.7-32-38.35-96-162.6-138-16.88Zm.8-384.82V337c-71.51,165.86-139.69,407.15-207.45,268.78v26.47c.38,9,.38,16.84.76,22.26.38,17.44,4.54,34.29,12.11,47.52,37.1,64.38,67.38-12,103-75.2,34.77-61.07,68.83-8.54,89.53,37.42v6.38q.69-1.59,1.41-3.21c.22.51.44,1,.67,1.53v-3c20.69-46,54.75-98.49,89.52-37.41,35.59,63.17,65.87,139.57,103,75.2,7.57-13.24,11.73-30.08,12.11-47.53.38-5.41.38-13.23.76-22.26V607.44c-67.44,137.7-108.43-50.27-205.36-268.74Z"/> <path class="cls-6" d="M1763.4,607.29c-34.18-123.49-86.49-19.4-112.65,12.64-17.86,23.53-37.57,1-49.88-30.55,11.7,76.12,42.49,91.14,71.43,35.06,34.22-67.58,70.86-3,90.68,58.64v2.85l.45-1.43v0c19.81-61.66,56.45-126.22,90.67-58.64,28.94,56.08,59.73,41.06,71.43-35.06-12.31,31.55-32,54.08-49.87,30.55-26.07-31.92-78.09-135.34-112.27-14Zm.65-270.31h0c-76.93,146.58-113.61,287.46-168.73,172.28v22c.31,7.51.31,14,.62,18.52.31,14.53,3.69,28.55,9.85,39.56,30.18,53.58,54.81-10,83.75-62.59,28.28-50.84,56-7.11,72.82,31.14v5.31l1.15-2.67.54,1.27v-2.51c16.83-38.25,44.54-82,72.82-31.14,28.94,52.58,53.57,116.17,83.75,62.59,6.16-11,9.54-25,9.85-39.55.31-4.51.31-11,.62-18.53v-22C1876.24,625.28,1853.28,508.7,1764.05,337Z"/> </g> </g> <path class="cls-2" d="M1567.08,1105.48c-69.6-70.74-167.84-30-221.06,3.22-63.45,38.58-126.91,115.75-313.17,117.9-188.31,2.14-159.65-85.75-229.25-139.34-47.07-35.37-73.68-38.59-112.57-38.59s-73.69,11.79-116.67,49.31C416.75,1233-11.32,1117,1,1035.56c18.42-141.48,340.06-7.25,495.62-54.41,83.92-25.73,73.68-188.65,262-190.79s182.17,155.41,292.7,149c174-10.71,282.47-205.79,552.65-169.35,212.87,28.94,411.42,159.71,427.79,269C2060.37,1229.81,1689.89,1228.74,1567.08,1105.48Z"/> <path class="cls-11" d="M678.53,984.53C996,899.23,1635.45,622,2050,951.21c0,88-4.57,159.92-4.57,205.23C1806.41,991.19,1358.25,815.28,940,996.52,588.89,1145.78,215.42,1105.8,73.5,903.23,222.89,987.19,461.91,1047.16,678.53,984.53ZM1149.1,736.65C798,876.58,499.26,1045.83,133.26,903.23,58.56,873.91,0,798,0,798V690.48C571.16,952.36,830,0,1392.83,0H2050V830.63C1848.33,726.69,1503.9,596.72,1149.1,736.65Z"/> <path class="cls-10" d="M1262.05,1535.83l0,0c-1.74-1.12-451.2-243.12-719.3-127-169.15,68.91-333.86,73.28-446,19.11a279.52,279.52,0,0,1-48-29.28h0l0,0h0C33.31,1387,6.17,1357.48,5.5,1356.61c0,0,113.79,35.57,194,35.47,84.33-.11,182.85-20,287.86-72,57.73-28.58,122.07-57.79,191.36-81.48h0c26.49-9.06,53.7-17.31,81.53-24.41h0a880,880,0,0,1,100.5-19.69q13.35-1.8,26.85-3.15c83.26-8.31,170.43-3.41,259.45,22.44q28.28,8.2,56.78,19.31a709.2,709.2,0,0,1,94.34,45.29q14.79,8.48,29,16.56h0C1599.87,1449.61,1324.1,1542.41,1262.05,1535.83Z"/> <path class="cls-2" d="M1568.56,1338.74c110.74-29.75,336.83-126.45,481.44-11.62v71.59c-83.38-57.64-244.32-119-390.24-55.78-122.47,52.06-252.75,38.12-302.26-32.55C1409.62,1339.67,1493,1360.59,1568.56,1338.74Zm164.16-86.47c-122.47,48.82-226.69,107.86-354.37,58.11-26.06-10.22-40.39-23.24-41.69-36.72-1.3-4.19-1.3-10.23-2.61-17.2V1236c233.21,106.93,217-298.46,716-298.46v347.27C1979.65,1248.55,1856.49,1203.46,1732.72,1252.27Z"/> <g> <path class="cls-3" d="M1542,1274.54l-64,6.6c0-117.52,9.82-76.93,10.88-178.35,0-2.34-2.34-163.9,0-163.9l42.53,27.05c2.34,0,0,134.51,0,136.85C1531.49,1109.83,1542,1222.64,1542,1274.54Z"/> <g> <path class="cls-4" d="M1509.74,1154.05c56.77-127.13,143.69-20,187.15,13,29.67,24.23,62.4,1,82.86-31.45-19.43,78.36-70.58,93.82-118.67,36.09-56.84-69.57-117.72-3.11-150.64,60.37V1235l-.75-1.46v0c-32.92-63.48-93.8-129.94-150.64-60.37-48.08,57.74-99.24,42.27-118.67-36.09,20.46,32.48,53.19,55.68,82.86,31.45,43.3-32.86,129.72-139.33,186.51-14.46Zm-1.09-430.39v-1.47c195.91,0,188.75,449.52,280.31,331v22.68c-.51,7.74-.51,14.44-1,19.08a63.88,63.88,0,0,1-16.37,40.72c-50.13,55.16-91-10.31-139.13-64.44-47-52.33-93-7.32-121,32.06v5.47l-1.91-2.75-.91,1.31v-2.58c-28-39.39-74-84.4-121-32.06-48.08,54.12-89,119.59-139.13,64.43a63.88,63.88,0,0,1-16.37-40.72c-.51-4.64-.51-11.34-1-19.07v-22.69c91.12,118,84.47-326.64,277.49-330.92Z"/> <path class="cls-5" d="M1509.93,981.75c51.4-181.47,130.07-28.5,169.42,18.58,26.85,34.59,56.49,1.48,75-44.88-17.6,111.85-63.9,133.92-107.42,51.51-51.46-99.31-106.57-4.44-136.37,86.18v4.18c-.22-.7-.45-1.39-.68-2.09v0c-29.8-90.62-84.91-185.49-136.37-86.18-43.52,82.41-89.82,60.34-107.42-51.52,18.52,46.36,48.16,79.48,75,44.89,39.2-46.9,117.42-198.89,168.83-20.64Zm-1-470.7v-2.11c87.47,202.88,170.86,498,253.74,328.77v32.38c-.46,11-.46,20.6-.92,27.22-.47,21.34-5.56,42-14.82,58.14-45.38,78.73-82.42-14.72-125.94-92-42.53-74.7-84.2-10.45-109.51,45.77V917l-1.73-3.92L1509,915v-3.68c-25.31-56.22-67-120.48-109.51-45.77-43.52,77.27-80.56,170.72-125.94,92-9.26-16.18-14.35-36.79-14.82-58.13-.46-6.62-.46-16.19-.92-27.23V839.77c82.48,168.43,132.63-61.5,251.19-328.72Z"/> <path class="cls-6" d="M1510,839.57c41.8-151.05,105.79-23.72,137.79,15.47,21.85,28.79,46,1.22,61-37.36-14.32,93.1-52,111.47-87.38,42.87-41.85-82.65-86.67-3.69-110.91,71.74v3.48c-.19-.58-.37-1.16-.56-1.74v0c-24.24-75.43-69.06-154.39-110.91-71.73-35.4,68.6-73.06,50.22-87.38-42.88,15.07,38.59,39.17,66.15,61,37.36,31.88-39,95.5-165.54,137.32-17.18Zm-.8-330.63h0c94.1,179.29,139,351.61,206.38,210.74v27c-.37,9.18-.37,17.15-.75,22.66-.38,17.76-4.52,34.91-12,48.39-36.91,65.53-67-12.25-102.44-76.57-34.59-62.18-68.48-8.7-89.07,38.1v6.49c-.46-1.08-.93-2.17-1.41-3.26l-.66,1.55v-3.07c-20.59-46.79-54.48-100.27-89.07-38.09-35.4,64.31-65.53,142.1-102.44,76.56-7.53-13.47-11.67-30.62-12-48.39-.38-5.51-.38-13.47-.75-22.66v-27C1372,861.59,1400,719,1509.19,508.94Z"/> </g> </g> <path class="cls-2" d="M1037,1244.07c111.12,35.9,205.69,79.31,321.54,42.73,23.65-7.52,117.39-32.82,118.57-42.73,1.19-3.08,1.19-7.52,2.37-12.65v-15c-211.61,78.63-267.06-212.87-728.56-237.26S0,979.12,0,979.12v482.42L578.11,1259.8C641.94,1233.13,924.68,1208.18,1037,1244.07Z"/> <g> <path class="cls-3" d="M495.81,1414.78l-102,10.52c0-187.42,15.67-122.69,17.36-284.44,0-3.73-3.73-261.39,0-261.39L479,922.61c3.73,0,0,214.52,0,218.25C479,1152.1,495.81,1332,495.81,1414.78Z"/> <g> <path class="cls-4" d="M444.28,1222.62c90.55-202.74,229.16-31.84,298.48,20.76,47.32,38.64,99.53,1.65,132.16-50.15-31,125-112.58,149.63-189.26,57.55-90.66-111-187.75-5-240.25,96.29v4.67l-1.2-2.34,0,0v-.07c-52.5-101.24-149.59-207.24-240.25-96.29-76.68,92.08-158.26,67.42-189.26-57.55,32.64,51.8,84.84,88.79,132.16,50.15,69-52.4,206.87-222.2,297.44-23.06Zm-1.72-686.39v-2.35c312.44,0,301,716.9,447,527.81v36.17c-.82,12.34-.82,23-1.63,30.42a101.93,101.93,0,0,1-26.11,65c-79.94,88-145.2-16.44-221.89-102.77C565,1007,491.64,1078.78,447,1141.59v8.72q-1.5-2.18-3-4.38c-.49.7-1,1.39-1.44,2.08v-4.12c-44.6-62.81-118-134.59-192.93-51.13-76.69,86.33-141.95,190.74-221.89,102.77a101.93,101.93,0,0,1-26.11-65c-.81-7.4-.81-18.09-1.63-30.42V1064c145.32,188.18,134.71-520.94,442.56-527.76Z"/> <path class="cls-5" d="M444.59,947.84c82-289.42,207.45-45.46,270.2,29.63,42.83,55.16,90.09,2.35,119.62-71.59-28.06,178.39-101.9,213.59-171.32,82.15C581,829.66,493.14,981,445.62,1125.48v6.67c-.37-1.11-.73-2.23-1.09-3.34,0,0,0,0,0,0v-.09C397,984.24,309.1,832.94,227,991.31c-69.41,131.45-143.26,96.24-171.32-82.15,29.54,73.94,76.8,126.75,119.63,71.59,62.51-74.8,187.27-317.19,269.25-32.91ZM443,197.14v-3.36C582.53,517.34,715.52,988,847.71,718.11v51.63c-.74,17.61-.74,32.86-1.48,43.43-.74,34-8.86,66.89-23.63,92.71-72.37,125.57-131.45-23.47-200.86-146.7-67.83-119.14-134.28-16.67-174.65,73v12.45q-1.35-3.12-2.75-6.26c-.44,1-.88,2-1.31,3v-5.88c-40.37-89.66-106.82-192.13-174.64-73C199,885.69,139.9,1034.74,67.53,909.16c-14.77-25.82-22.9-58.68-23.63-92.71-.74-10.56-.74-25.82-1.48-43.42V721.39C174,990,253.94,623.32,443,197.14Z"/> <path class="cls-6" d="M444.68,721.08c66.67-240.9,168.73-37.83,219.77,24.67,34.83,45.91,73.28,2,97.3-59.59C738.93,834.64,678.86,864,622.4,754.54,555.65,622.72,484.17,748.65,445.51,869v5.54l-.88-2.77,0,0v-.08C406,751.39,334.47,625.45,267.72,757.27c-56.46,109.41-116.52,80.1-139.34-68.38,24,61.54,62.46,105.5,97.3,59.59,50.84-62.26,152.32-264,219-27.4Zm-1.27-527.3h0C593.48,479.72,665.05,754.54,772.56,529.87v43c-.6,14.65-.6,27.35-1.2,36.14-.6,28.33-7.21,55.68-19.22,77.17-58.86,104.52-106.91-19.54-163.37-122.1-55.17-99.17-109.22-13.88-142.06,60.75v10.36q-1.09-2.59-2.24-5.21c-.35.83-.71,1.65-1.06,2.47v-4.89c-32.83-74.63-86.88-159.92-142-60.75C244.9,669.36,196.85,793.42,138,688.89c-12-21.49-18.62-48.84-19.22-77.17-.61-8.79-.61-21.49-1.21-36.14v-43C224.56,756.19,269.34,528.77,443.41,193.78Z"/> </g> </g> <path class="cls-2" d="M1133.12,1378.55C1032.64,1356.67,453.84,1064,186.06,1550c-.31.56,273.94-80.78,273.94,0,75.66-42.39,458-214.87,590.37-168.37,111.13,38.28,229.34,28,274.26-23.93C1277.35,1379.23,1201.69,1394.62,1133.12,1378.55Z"/> <path class="cls-12" d="M1349.78,1029.91C1038.64,951.19,406.32,699.2,0,1003v189.43C234.28,1039.92,683.56,873.7,1093.54,1041c344.09,137.77,710.15,100.87,849.25-86.1C1796.37,1032.37,1562.09,1087.72,1349.78,1029.91ZM888.55,801.13c344.09,129.15,636.94,285.36,995.67,153.75,73.21-27.06,113.48-61.5,117.14-97.17,3.66-11.07,3.66-27.06,7.32-45.51V758.07C1398,1021.73,854.3,0,405.9,0H0V887.23C197.67,791.29,540.8,672,888.55,801.13Z"/> <path class="cls-2" d="M2050,1550H0V1360.37a40.22,40.22,0,0,1,6.36-1.21,8.32,8.32,0,0,1,1.22,0,9.63,9.63,0,0,1,2.74.63,768.42,768.42,0,0,0,140.47,49.26c47.58,11.53,101.66,19.21,155.43,15.62q11.64-.78,23.24-2.28c144.21-19.07,382.81-93.6,605.21-144.43,42.81-9.79,85-18.7,125.85-26.16,37-6.76,72.78-12.34,106.88-16.31,11.49-1.35,23.66-2.16,36.41-2.46,65.32-1.51,146,10.4,231.18,30.42h0C1698.24,1325.39,2050,1550,2050,1550Z"/> </g> </g> </svg>